HIERARCHY
ROOT Hips
{
  OFFSET 0.0000 0.0000 0.0000
  CHANNELS 6 Xposition Yposition Zposition Zrotation Xrotation Yrotation
  JOINT Spine
  {
    OFFSET 0.0000 12.0000 0.0000
    CHANNELS 3 Zrotation Xrotation Yrotation
    JOINT Spine1
    {
      OFFSET 0.0000 12.0000 0.0000
      CHANNELS 3 Zrotation Xrotation Yrotation
      JOINT Neck
      {
        OFFSET 0.0000 6.0000 0.0000
        CHANNELS 3 Zrotation Xrotation Yrotation
        JOINT Head
        {
          OFFSET 0.0000 8.0000 0.0000
          CHANNELS 3 Zrotation Xrotation Yrotation
          End Site
          {
            OFFSET 0.0000 10.0000 0.0000
          }
        }
      }
      JOINT LeftArm
      {
        OFFSET 15.0000 0.0000 0.0000
        CHANNELS 3 Zrotation Xrotation Yrotation
        JOINT LeftForeArm
        {
          OFFSET 25.0000 0.0000 0.0000
          CHANNELS 3 Zrotation Xrotation Yrotation
          JOINT LeftHand
          {
            OFFSET 22.0000 0.0000 0.0000
            CHANNELS 3 Zrotation Xrotation Yrotation
            End Site
            {
              OFFSET 10.0000 0.0000 0.0000
            }
          }
        }
      }
      JOINT RightArm
      {
        OFFSET -15.0000 0.0000 0.0000
        CHANNELS 3 Zrotation Xrotation Yrotation
        JOINT RightForeArm
        {
          OFFSET -25.0000 0.0000 0.0000
          CHANNELS 3 Zrotation Xrotation Yrotation
          JOINT RightHand
          {
            OFFSET -22.0000 0.0000 0.0000
            CHANNELS 3 Zrotation Xrotation Yrotation
            End Site
            {
              OFFSET -10.0000 0.0000 0.0000
            }
          }
        }
      }
    }
  }
  JOINT LeftUpLeg
  {
    OFFSET 10.0000 0.0000 0.0000
    CHANNELS 3 Zrotation Xrotation Yrotation
    JOINT LeftLeg
    {
      OFFSET 0.0000 -43.0000 0.0000
      CHANNELS 3 Zrotation Xrotation Yrotation
      JOINT LeftFoot
      {
        OFFSET 0.0000 -40.0000 0.0000
        CHANNELS 3 Zrotation Xrotation Yrotation
        End Site
        {
          OFFSET 0.0000 -5.0000 5.0000
        }
      }
    }
  }
  JOINT RightUpLeg
  {
    OFFSET -10.0000 0.0000 0.0000
    CHANNELS 3 Zrotation Xrotation Yrotation
    JOINT RightLeg
    {
      OFFSET 0.0000 -43.0000 0.0000
      CHANNELS 3 Zrotation Xrotation Yrotation
      JOINT RightFoot
      {
        OFFSET 0.0000 -40.0000 0.0000
        CHANNELS 3 Zrotation Xrotation Yrotation
        End Site
        {
          OFFSET 0.0000 -5.0000 5.0000
        }
      }
    }
  }
}
MOTION
Frames: 28
Frame Time: 0.033333
0.4810 30.1082 0.0368 -84.9237 20.8030 29.0208 -0.0000 0.0000 0.0000 -0.0000 0.0000 0.0000 2.3566 39.3344 -0.8424 -0.0000 0.0000 0.0000 78.6178 -10.8317 -13.2102 25.6659 33.7027 106.1086 -0.0000 0.0000 0.0000 -106.6580 -2.4079 1.7930 -57.4983 2.7536 -5.0170 -0.0000 0.0000 0.0000 3.8790 -11.0910 0.3768 21.2893 17.1676 -3.2502 -0.0000 0.0000 0.0000 6.8743 -14.8740 0.8984 8.6660 43.0901 -3.4270 -0.0000 0.0000 0.0000
0.4546 30.0749 0.0303 -86.1026 17.6015 26.0003 -0.0000 0.0000 0.0000 -0.0000 0.0000 0.0000 2.8959 31.8463 -0.8263 -0.0000 0.0000 0.0000 65.5958 -29.2408 -44.0772 59.5033 -65.3974 -96.6376 -0.0000 0.0000 0.0000 -118.9246 2.1950 -1.2950 -126.4702 -29.6698 15.2180 -0.0000 0.0000 0.0000 1.6512 -15.8553 0.2300 19.4348 26.0386 -4.5350 -0.0000 0.0000 0.0000 10.2682 -17.1389 1.5514 -4.4358 46.9563 1.9275 -0.0000 0.0000 0.0000
0.4248 30.0414 0.0229 -87.6301 16.1504 22.7636 -0.0000 0.0000 0.0000 -0.0000 0.0000 0.0000 4.0253 26.5134 -0.9487 -0.0000 0.0000 0.0000 42.6311 -30.7790 -70.3991 -8.8867 16.3994 -123.3268 -0.0000 0.0000 0.0000 -136.5776 14.5002 -5.7997 -139.3710 -23.9736 8.9883 -0.0000 0.0000 0.0000 0.5959 -20.0385 0.1053 20.3563 37.2457 -6.9243 -0.0000 0.0000 0.0000 15.1904 -18.9346 2.5476 -19.8766 53.4173 10.0761 -0.0000 0.0000 0.0000
0.3916 30.0076 0.0146 -89.5872 16.4386 19.4037 -0.0000 0.0000 0.0000 -0.0000 0.0000 0.0000 5.3802 22.9975 -1.0953 -0.0000 0.0000 0.0000 28.9675 -25.3069 -81.9890 -42.5903 42.3487 -89.6421 -0.0000 0.0000 0.0000 -152.8175 37.0018 -9.2500 -134.4301 13.2141 -5.5710 -0.0000 0.0000 0.0000 0.3790 -23.9759 0.0805 28.1183 54.8459 -14.8065 -0.0000 0.0000 0.0000 22.6663 -19.5528 3.9557 -49.3652 61.3894 30.5203 -0.0000 0.0000 0.0000
0.3404 29.9609 -0.0002 -92.5275 19.0331 11.7143 -0.0000 0.0000 0.0000 -0.0000 0.0000 0.0000 6.4941 21.4045 -1.2286 -0.0000 0.0000 0.0000 12.0161 -11.0506 -85.1739 -92.6156 33.0894 -31.6881 -0.0000 0.0000 0.0000 149.4947 -79.5875 -25.5939 31.2811 35.3702 97.4308 -0.0000 0.0000 0.0000 0.8280 -28.9286 0.2136 49.8043 79.0934 -41.9454 -0.0000 0.0000 0.0000 28.6400 -18.2520 4.6963 -88.7060 61.2235 60.0955 -0.0000 0.0000 0.0000
0.3071 29.9197 -0.0094 -96.2721 20.8585 10.8589 -0.0000 0.0000 0.0000 -0.0000 0.0000 0.0000 9.3649 16.3247 -1.3462 -0.0000 0.0000 0.0000 21.0390 -19.4609 -85.4431 -147.9742 10.1557 -2.9216 -0.0000 0.0000 0.0000 16.5795 -80.8119 -160.5745 39.4368 21.2345 55.2206 -0.0000 0.0000 0.0000 -0.2453 -32.8059 -0.0722 170.9421 51.2182 -161.2327 -0.0000 0.0000 0.0000 63.6706 2.1710 -1.3480 -127.9330 31.4216 59.8732 -0.0000 0.0000 0.0000
0.2898 29.9191 -0.0102 -98.1601 19.9601 28.4945 -0.0000 0.0000 0.0000 -0.0000 0.0000 0.0000 12.5675 12.4557 -1.3769 -0.0000 0.0000 0.0000 101.2741 -34.3312 -28.4382 -13.5234 -40.3486 144.2306 -0.0000 0.0000 0.0000 -157.3278 -11.4856 2.3100 -2.3647 0.8322 -38.7740 -0.0000 0.0000 0.0000 -154.4326 10.8426 45.3960 166.6746 26.3708 -126.9977 -0.0000 0.0000 0.0000 130.1448 25.6809 -52.2493 -117.8006 -2.9311 -4.8571 -0.0000 0.0000 0.0000
0.2808 29.9186 0.0011 -101.4747 20.2167 98.0234 -0.0000 0.0000 0.0000 -0.0000 0.0000 0.0000 16.3666 -8.3946 1.2093 -0.0000 0.0000 0.0000 113.2354 -13.7481 -9.0837 -102.9386 11.1502 -8.8892 -0.0000 0.0000 0.0000 -123.7228 -35.6545 19.5178 -22.4426 1.5954 -8.0289 -0.0000 0.0000 0.0000 175.9233 -9.2434 132.4750 151.1731 33.2927 -98.6373 -0.0000 0.0000 0.0000 127.0983 0.9392 -1.8877 -70.2080 -9.5715 -6.7359 -0.0000 0.0000 0.0000
0.2734 29.9171 0.0056 -102.8205 14.6804 106.2905 -0.0000 0.0000 0.0000 -0.0000 0.0000 0.0000 15.1594 -13.9568 1.8663 -0.0000 0.0000 0.0000 108.7714 -11.1823 -8.0223 -64.6187 6.6274 -10.4623 -0.0000 0.0000 0.0000 -128.8403 1.4090 -0.6745 -5.8058 0.8543 -16.7284 -0.0000 0.0000 0.0000 -162.1189 -1.8658 -11.8188 -159.3416 -13.1513 -64.6247 -0.0000 0.0000 0.0000 127.4516 1.4396 -2.9157 -111.5589 -14.5095 -21.2031 -0.0000 0.0000 0.0000
0.2719 29.9035 0.0033 -101.9432 8.6055 51.0919 -0.0000 0.0000 0.0000 -0.0000 0.0000 0.0000 28.8170 5.0679 -1.3028 -0.0000 0.0000 0.0000 104.5164 -19.4471 -15.1111 -20.0115 -4.6656 26.0035 -0.0000 0.0000 0.0000 -105.7762 20.1232 -15.2927 142.0548 41.1271 14.6981 -0.0000 0.0000 0.0000 -41.5349 -10.6294 -4.0407 135.1463 5.5371 -13.3656 -0.0000 0.0000 0.0000 47.9334 -15.8213 7.0691 -143.0489 43.2437 99.7413 -0.0000 0.0000 0.0000
0.2773 29.8632 0.0066 -105.1549 10.8033 18.9851 -0.0000 0.0000 0.0000 -0.0000 0.0000 0.0000 29.3518 27.7937 -7.4149 -0.0000 0.0000 0.0000 82.5510 -23.6082 -26.7842 5.0898 0.2430 5.4631 -0.0000 0.0000 0.0000 -57.0543 -22.2813 39.8297 112.8347 39.6260 26.9060 -0.0000 0.0000 0.0000 -6.9454 -23.3798 -1.4387 27.8975 15.6481 -3.9095 -0.0000 0.0000 0.0000 12.8921 -30.2715 3.5009 -19.1004 57.5632 10.5608 -0.0000 0.0000 0.0000
0.2702 29.8919 -0.0116 -98.5141 17.1957 16.0397 -0.0000 0.0000 0.0000 -0.0000 0.0000 0.0000 36.3636 34.4299 -11.6209 -0.0000 0.0000 0.0000 73.2744 -23.6662 -31.4680 -7.4953 0.0485 -0.7402 -0.0000 0.0000 0.0000 9.5624 9.6252 90.3770 -8.3395 5.9230 -70.7200 -0.0000 0.0000 0.0000 -5.3812 -32.8129 -1.5855 15.7260 20.9585 -2.9265 -0.0000 0.0000 0.0000 7.7033 -31.1885 2.1530 -10.4138 39.2182 3.7190 -0.0000 0.0000 0.0000
0.2542 29.9963 -0.0548 -78.9929 23.0869 20.3088 -0.0000 0.0000 0.0000 -0.0000 0.0000 0.0000 44.6126 31.0708 -13.0127 -0.0000 0.0000 0.0000 63.6986 -24.0350 -37.8305 -19.4172 1.6414 -9.5720 -0.0000 0.0000 0.0000 20.9220 21.4097 91.3506 -91.8694 23.0886 -22.3663 -0.0000 0.0000 0.0000 -13.4155 -42.9409 -5.2970 51.2517 62.4560 -32.4311 -0.0000 0.0000 0.0000 4.7909 -39.6922 1.7300 -37.2982 64.3607 23.9794 -0.0000 0.0000 0.0000
0.2355 30.1350 -0.1168 -52.7914 23.3165 22.5874 -0.0000 0.0000 0.0000 -0.0000 0.0000 0.0000 39.6989 25.0890 -9.1849 -0.0000 0.0000 0.0000 48.8903 -22.5274 -47.3193 -23.7000 8.3097 -38.1930 -0.0000 0.0000 0.0000 27.4007 19.0905 69.1941 -87.3575 -27.5358 28.7831 -0.0000 0.0000 0.0000 -2.2329 -38.9548 -0.7898 82.8880 77.7833 -70.9220 -0.0000 0.0000 0.0000 10.1577 -29.9053 2.7194 -73.1863 62.2348 48.2838 -0.0000 0.0000 0.0000
0.2023 30.2806 -0.1743 -31.6151 17.8370 22.3823 -0.0000 0.0000 0.0000 -0.0000 0.0000 0.0000 27.3571 25.5621 -6.3201 -0.0000 0.0000 0.0000 36.2170 -16.2383 -47.1390 -42.7367 32.4562 -73.2913 -0.0000 0.0000 0.0000 15.6959 7.0714 48.2906 -28.1896 -24.9317 82.7247 -0.0000 0.0000 0.0000 8.0983 -24.3592 1.7507 18.9293 60.4685 -11.0989 -0.0000 0.0000 0.0000 8.0509 -20.3164 1.4448 -36.8019 68.0422 25.3139 -0.0000 0.0000 0.0000
0.1733 30.3934 -0.2014 -20.3862 14.2421 22.6604 -0.0000 0.0000 0.0000 -0.0000 0.0000 0.0000 21.0961 27.4265 -5.2032 -0.0000 0.0000 0.0000 33.2153 -12.7820 -41.1665 -54.2795 51.0285 -85.9129 -0.0000 0.0000 0.0000 0.7910 0.2419 34.0034 -7.1146 -7.4681 92.7846 -0.0000 0.0000 0.0000 10.1969 -16.9132 1.5200 10.7513 34.2243 -3.3188 -0.0000 0.0000 0.0000 9.8589 -17.3336 1.5064 -2.1984 58.2969 1.2262 -0.0000 0.0000 0.0000
0.1634 30.4217 -0.1677 -18.0190 13.1660 22.9946 -0.0000 0.0000 0.0000 -0.0000 0.0000 0.0000 26.7192 29.6420 -7.1915 -0.0000 0.0000 0.0000 19.9214 -10.9763 -57.3655 -84.9856 54.6446 -58.8413 -0.0000 0.0000 0.0000 2.7932 0.8431 33.5877 -1.8316 -1.8171 89.5430 -0.0000 0.0000 0.0000 3.6534 -14.5244 0.4657 11.3659 21.1027 -2.1238 -0.0000 0.0000 0.0000 11.2767 -20.8686 2.0831 10.0346 56.4292 -5.3936 -0.0000 0.0000 0.0000
0.1496 30.4610 -0.1222 -13.9734 13.8394 20.8312 -0.0000 0.0000 0.0000 -0.0000 0.0000 0.0000 29.4521 30.2559 -8.1286 -0.0000 0.0000 0.0000 15.2775 -10.8026 -70.3666 -100.5392 51.0222 -43.2683 -0.0000 0.0000 0.0000 -1.3421 -0.4198 34.7384 4.2854 4.4702 92.4210 -0.0000 0.0000 0.0000 -2.3123 -17.5465 -0.3569 14.9432 23.8754 -3.1765 -0.0000 0.0000 0.0000 11.2720 -18.8462 1.8766 -3.4875 52.7573 1.7300 -0.0000 0.0000 0.0000
0.1563 30.4620 -0.0823 -10.0546 8.7679 14.7037 -0.0000 0.0000 0.0000 -0.0000 0.0000 0.0000 30.1667 31.7152 -8.7556 -0.0000 0.0000 0.0000 7.5185 -6.4835 -81.5242 -107.6166 42.3983 -31.6860 -0.0000 0.0000 0.0000 6.2562 1.8819 33.4545 28.7850 34.1271 100.2063 -0.0000 0.0000 0.0000 -3.9157 -16.8952 -0.5818 15.6812 31.3274 -4.4225 -0.0000 0.0000 0.0000 11.3055 -15.0944 1.5027 -11.8725 50.4593 5.6099 -0.0000 0.0000 0.0000
0.1515 30.4356 -0.0627 -7.0820 8.0486 4.6666 -0.0000 0.0000 0.0000 -0.0000 0.0000 0.0000 21.1626 29.7915 -5.6895 -0.0000 0.0000 0.0000 10.6140 -10.1367 -87.3507 -54.5135 38.6888 -68.5439 -0.0000 0.0000 0.0000 -85.7793 -25.6731 27.5652 22.7195 43.5300 126.5781 -0.0000 0.0000 0.0000 -8.0123 -21.2208 -1.5033 14.8974 37.8442 -5.1325 -0.0000 0.0000 0.0000 11.1639 -13.0475 1.2806 -23.3634 43.2790 9.3785 -0.0000 0.0000 0.0000
0.1217 30.4020 -0.0735 -4.5348 18.5940 -6.3744 -0.0000 0.0000 0.0000 -0.0000 0.0000 0.0000 11.4307 34.0623 -3.5121 -0.0000 0.0000 0.0000 -3.3876 3.1717 -86.2276 -40.9419 21.8586 -54.7023 -0.0000 0.0000 0.0000 73.9095 50.0481 63.6398 -114.3208 -9.6626 6.2452 -0.0000 0.0000 0.0000 -10.4766 -36.1254 -3.4253 17.9029 50.9772 -8.5889 -0.0000 0.0000 0.0000 14.6296 -21.6623 2.8137 -31.4396 36.4899 10.6019 -0.0000 0.0000 0.0000
0.0768 30.3725 -0.0712 -3.1477 42.5453 -14.2406 -0.0000 0.0000 0.0000 -0.0000 0.0000 0.0000 -0.4241 29.5459 0.1118 -0.0000 0.0000 0.0000 6.0894 -4.8368 -76.9010 -3.5555 1.6958 -50.9865 -0.0000 0.0000 0.0000 18.7959 27.7833 112.4172 -51.7696 4.7433 -9.7570 -0.0000 0.0000 0.0000 -12.4577 -60.1838 -7.2381 49.4015 71.7432 -36.7954 -0.0000 0.0000 0.0000 22.0932 -34.4195 6.9208 -27.5004 34.7675 8.7616 -0.0000 0.0000 0.0000
0.0402 30.3555 -0.0464 -2.0804 68.0983 -16.3645 -0.0000 0.0000 0.0000 -0.0000 0.0000 0.0000 -0.0511 13.4914 0.0060 -0.0000 0.0000 0.0000 33.6832 -20.4763 -61.6458 2.7513 -0.8508 -34.3612 -0.0000 0.0000 0.0000 -21.6024 -32.3617 113.3505 -18.9331 8.3844 -47.4595 -0.0000 0.0000 0.0000 -50.5864 -82.4721 -45.0000 137.7867 69.0167 -121.3751 -0.0000 0.0000 0.0000 23.9523 -43.3112 9.6285 -9.2250 32.6565 2.7079 -0.0000 0.0000 0.0000
0.0159 30.3585 -0.0263 -8.9618 75.9839 -9.2577 -0.0000 0.0000 0.0000 -0.0000 0.0000 0.0000 1.0419 7.9937 -0.0728 -0.0000 0.0000 0.0000 48.2317 -20.7421 -44.4720 4.9517 -1.5590 -34.9339 -0.0000 0.0000 0.0000 -72.7999 -46.1584 60.0523 1.2844 -0.5790 -48.5274 -0.0000 0.0000 0.0000 -64.3392 -83.7608 -58.8437 138.6405 67.5050 -121.0790 -0.0000 0.0000 0.0000 17.2209 -38.9836 6.1359 6.9151 21.2444 -1.2984 -0.0000 0.0000 0.0000
0.0152 30.3555 -0.0231 -11.6322 65.5931 -7.3912 -0.0000 0.0000 0.0000 -0.0000 0.0000 0.0000 3.9813 11.7283 -0.4091 -0.0000 0.0000 0.0000 40.1933 -16.9937 -44.4218 -4.7714 2.3625 -52.6628 -0.0000 0.0000 0.0000 -71.0753 -46.3592 61.8813 4.6023 -2.6138 -59.1691 -0.0000 0.0000 0.0000 -9.7072 -72.8020 -7.1649 123.1816 75.9087 -110.5200 -0.0000 0.0000 0.0000 10.3743 -26.4438 2.4438 10.9720 20.1192 -1.9522 -0.0000 0.0000 0.0000
0.0186 30.3521 -0.0357 -10.9214 45.4766 -11.2641 -0.0000 0.0000 0.0000 -0.0000 0.0000 0.0000 6.4683 15.5302 -0.8829 -0.0000 0.0000 0.0000 35.2834 -14.4997 -43.6046 -6.4878 4.3287 -67.3915 -0.0000 0.0000 0.0000 -81.4063 -44.1391 50.4703 17.0382 -8.4213 -52.3482 -0.0000 0.0000 0.0000 -3.0507 -46.2099 -1.3018 37.3693 78.0309 -30.6466 -0.0000 0.0000 0.0000 7.0788 -12.0364 0.7472 2.3975 22.6654 -0.4806 -0.0000 0.0000 0.0000
0.0237 30.3509 -0.0711 -10.7518 37.1420 -17.0420 -0.0000 0.0000 0.0000 -0.0000 0.0000 0.0000 7.1981 18.5472 -1.1768 -0.0000 0.0000 0.0000 33.7575 -11.2598 -35.9970 -0.1260 0.1078 -81.0878 -0.0000 0.0000 0.0000 -61.5122 -47.0442 72.3670 12.2696 -6.5041 -55.7253 -0.0000 0.0000 0.0000 -0.9486 -36.5347 -0.3131 9.8112 65.3752 -6.3047 -0.0000 0.0000 0.0000 9.3972 -8.7615 0.7215 -8.6955 21.0560 1.6190 -0.0000 0.0000 0.0000
0.0235 30.3492 -0.0940 -9.6954 32.1605 -23.4420 -0.0000 0.0000 0.0000 -0.0000 0.0000 0.0000 4.4581 22.9853 -0.9069 -0.0000 0.0000 0.0000 35.9758 -9.0385 -27.3632 8.5901 -8.3107 -88.0985 -0.0000 0.0000 0.0000 -29.7819 -40.5921 108.5676 -0.6484 0.3604 -58.1381 -0.0000 0.0000 0.0000 0.7101 -29.6491 0.1880 2.4424 58.1347 -1.3577 -0.0000 0.0000 0.0000 7.8629 -3.8913 0.2675 -10.2305 17.5553 1.5838 -0.0000 0.0000 0.0000
